<svg width="400" height="250" viewBox="0 0 400 250" fill="none" xmlns="http://www.w3.org/2000/svg">
<g filter="url(#filter0_d_104_76)">
<path d="M247.5 192.5V174.5L231.5 164.5L259.5 149.5L231.5 136.5L259.5 124L231.5 110L247.5 100.5V86" stroke="#20AD74" stroke-width="3"/>
</g>
<g filter="url(#filter1_d_104_76)">
<path d="M165.176 36.5V52.5M165.176 68.5V52.5M165.176 52.5L192.706 39.0357V52.5M165.176 52.5L192.706 65.9643V52.5M165.176 52.5H157.529H156M192.706 52.5H208" stroke="#20AD74" stroke-width="3" shape-rendering="crispEdges"/>
</g>
<rect x="91" y="51" width="70" height="3" fill="#20AD74"/>
<rect x="199" y="51" width="126" height="3" fill="#20AD74"/>
<rect x="246" y="91" width="40" height="3" transform="rotate(-90 246 91)" fill="#20AD74"/>
<rect x="246" y="222" width="40" height="3" transform="rotate(-90 246 222)" fill="#20AD74"/>
<rect x="91" y="219" width="234" height="3" fill="#20AD74"/>
<rect x="306" y="117" width="58" height="3" transform="rotate(-90 306 117)" fill="#20AD74"/>
<rect x="306" y="213" width="58" height="3" transform="rotate(-90 306 213)" fill="#20AD74"/>
<path d="M307.5 56L312.263 63.5H302.737L307.5 56Z" fill="#20AD74"/>
<path d="M307.5 216L302.737 208.5H312.263L307.5 216Z" fill="#20AD74"/>
<rect x="98" y="117" width="58" height="3" transform="rotate(-90 98 117)" fill="#20AD74"/>
<rect x="98" y="213" width="58" height="3" transform="rotate(-90 98 213)" fill="#20AD74"/>
<path d="M99.5 56L104.263 63.5H94.7369L99.5 56Z" fill="#20AD74"/>
<path d="M99.5 216L94.7369 208.5H104.263L99.5 216Z" fill="#20AD74"/>
<path d="M88.8651 124.818L93.2596 138.632H93.4283L97.8317 124.818H102.093L95.8253 143H90.8714L84.5948 124.818H88.8651Z" fill="#82FBB9"/>
<path d="M177.026 27H170.58V8.81818H177.079C178.908 8.81818 180.482 9.18217 181.802 9.91016C183.122 10.6322 184.137 11.6709 184.847 13.0263C185.563 14.3816 185.921 16.0033 185.921 17.8913C185.921 19.7853 185.563 21.4129 184.847 22.7741C184.137 24.1354 183.116 25.18 181.784 25.908C180.458 26.636 178.872 27 177.026 27ZM174.424 23.7063H176.866C178.002 23.7063 178.958 23.5051 179.733 23.1026C180.515 22.6942 181.1 22.0639 181.491 21.2116C181.888 20.3535 182.086 19.2467 182.086 17.8913C182.086 16.5478 181.888 15.4499 181.491 14.5977C181.1 13.7454 180.518 13.118 179.742 12.7156C178.967 12.3131 178.011 12.1119 176.875 12.1119H174.424V23.7063Z" fill="#82FBB9"/>
<path d="M293.865 124.818L298.26 138.632H298.428L302.832 124.818H307.093L300.825 143H295.871L289.595 124.818H293.865Z" fill="#82FBB9"/>
<path d="M205.58 143V124.818H212.754C214.127 124.818 215.299 125.064 216.269 125.555C217.246 126.04 217.989 126.73 218.498 127.624C219.012 128.511 219.27 129.556 219.27 130.757C219.27 131.965 219.009 133.004 218.489 133.874C217.968 134.738 217.213 135.401 216.225 135.862C215.242 136.324 214.053 136.555 212.656 136.555H207.853V133.465H212.034C212.768 133.465 213.378 133.365 213.863 133.163C214.349 132.962 214.71 132.66 214.946 132.258C215.189 131.855 215.31 131.355 215.31 130.757C215.31 130.154 215.189 129.645 214.946 129.23C214.71 128.816 214.346 128.502 213.854 128.289C213.369 128.07 212.757 127.961 212.017 127.961H209.424V143H205.58ZM215.399 134.726L219.918 143H215.674L211.253 134.726H215.399Z" fill="#82FBB9"/>
<path d="M101.906 149V140.818H104.175V149H101.906ZM103.045 139.763C102.708 139.763 102.419 139.652 102.177 139.428C101.939 139.201 101.82 138.929 101.82 138.613C101.82 138.3 101.939 138.032 102.177 137.809C102.419 137.581 102.708 137.468 103.045 137.468C103.383 137.468 103.67 137.581 103.908 137.809C104.15 138.032 104.271 138.3 104.271 138.613C104.271 138.929 104.15 139.201 103.908 139.428C103.67 139.652 103.383 139.763 103.045 139.763ZM108.262 144.27V149H105.992V140.818H108.155V142.262H108.251C108.432 141.786 108.736 141.409 109.162 141.132C109.588 140.852 110.105 140.712 110.712 140.712C111.28 140.712 111.775 140.836 112.198 141.085C112.621 141.333 112.949 141.688 113.184 142.15C113.418 142.608 113.535 143.155 113.535 143.79V149H111.266V144.195C111.269 143.695 111.142 143.304 110.882 143.023C110.623 142.739 110.266 142.597 109.812 142.597C109.506 142.597 109.236 142.663 109.002 142.794C108.771 142.926 108.59 143.118 108.459 143.37C108.331 143.618 108.265 143.918 108.262 144.27Z" fill="#82FBB9"/>
<path d="M306.602 148.16C305.775 148.16 305.059 147.984 304.456 147.632C303.855 147.277 303.392 146.784 303.065 146.152C302.739 145.516 302.575 144.779 302.575 143.941C302.575 143.096 302.739 142.357 303.065 141.725C303.392 141.089 303.855 140.596 304.456 140.244C305.059 139.889 305.775 139.712 306.602 139.712C307.43 139.712 308.143 139.889 308.744 140.244C309.347 140.596 309.812 141.089 310.139 141.725C310.466 142.357 310.629 143.096 310.629 143.941C310.629 144.779 310.466 145.516 310.139 146.152C309.812 146.784 309.347 147.277 308.744 147.632C308.143 147.984 307.43 148.16 306.602 148.16ZM306.613 146.402C306.989 146.402 307.304 146.295 307.556 146.082C307.808 145.866 307.998 145.571 308.126 145.198C308.257 144.825 308.323 144.401 308.323 143.925C308.323 143.449 308.257 143.025 308.126 142.652C307.998 142.279 307.808 141.984 307.556 141.768C307.304 141.551 306.989 141.443 306.613 141.443C306.233 141.443 305.913 141.551 305.654 141.768C305.398 141.984 305.205 142.279 305.074 142.652C304.946 143.025 304.882 143.449 304.882 143.925C304.882 144.401 304.946 144.825 305.074 145.198C305.205 145.571 305.398 145.866 305.654 146.082C305.913 146.295 306.233 146.402 306.613 146.402ZM317.352 144.516V139.818H319.621V148H317.442V146.514H317.357C317.172 146.993 316.865 147.379 316.435 147.67C316.009 147.961 315.489 148.107 314.875 148.107C314.328 148.107 313.847 147.982 313.431 147.734C313.016 147.485 312.691 147.132 312.456 146.674C312.225 146.216 312.108 145.667 312.105 145.028V139.818H314.374V144.623C314.377 145.106 314.507 145.488 314.763 145.768C315.018 146.049 315.361 146.189 315.791 146.189C316.064 146.189 316.32 146.127 316.558 146.002C316.796 145.875 316.988 145.686 317.133 145.438C317.282 145.189 317.355 144.882 317.352 144.516ZM325.788 139.818V141.523H320.861V139.818H325.788ZM321.979 137.858H324.248V145.486C324.248 145.695 324.28 145.859 324.344 145.976C324.408 146.089 324.497 146.169 324.611 146.216C324.728 146.262 324.863 146.285 325.015 146.285C325.122 146.285 325.228 146.276 325.335 146.258C325.441 146.237 325.523 146.221 325.58 146.21L325.937 147.899C325.823 147.934 325.663 147.975 325.457 148.021C325.252 148.071 325.001 148.101 324.706 148.112C324.16 148.133 323.68 148.06 323.268 147.893C322.86 147.727 322.542 147.467 322.315 147.116C322.087 146.764 321.976 146.32 321.979 145.784V137.858Z" fill="#82FBB9"/>
<line x1="82" y1="29" x2="82" y2="47" stroke="#008D55" stroke-width="2"/>
<line x1="73" y1="38" x2="91" y2="38" stroke="#008D55" stroke-width="2"/>
<line x1="73" y1="234" x2="91" y2="234" stroke="#008D55" stroke-width="2"/>
<defs>
<filter id="filter0_d_104_76" x="221.88" y="80" width="47.1273" height="118.5" filterUnits="userSpaceOnUse" color-interpolation-filters="sRGB">
<feFlood flood-opacity="0" result="BackgroundImageFix"/>
<feColorMatrix in="SourceAlpha" type="matrix" values="0 0 0 0 0 0 0 0 0 0 0 0 0 0 0 0 0 0 127 0" result="hardAlpha"/>
<feOffset/>
<feGaussianBlur stdDeviation="3"/>
<feComposite in2="hardAlpha" operator="out"/>
<feColorMatrix type="matrix" values="0 0 0 0 0 0 0 0 0 0.984314 0 0 0 0 0.329412 0 0 0 1 0"/>
<feBlend mode="normal" in2="BackgroundImageFix" result="effect1_dropShadow_104_76"/>
<feBlend mode="normal" in="SourceGraphic" in2="effect1_dropShadow_104_76" result="shape"/>
</filter>
<filter id="filter1_d_104_76" x="150" y="30.5" width="64" height="44" filterUnits="userSpaceOnUse" color-interpolation-filters="sRGB">
<feFlood flood-opacity="0" result="BackgroundImageFix"/>
<feColorMatrix in="SourceAlpha" type="matrix" values="0 0 0 0 0 0 0 0 0 0 0 0 0 0 0 0 0 0 127 0" result="hardAlpha"/>
<feOffset/>
<feGaussianBlur stdDeviation="3"/>
<feComposite in2="hardAlpha" operator="out"/>
<feColorMatrix type="matrix" values="0 0 0 0 0 0 0 0 0 0.985577 0 0 0 0 0.328526 0 0 0 1 0"/>
<feBlend mode="normal" in2="BackgroundImageFix" result="effect1_dropShadow_104_76"/>
<feBlend mode="normal" in="SourceGraphic" in2="effect1_dropShadow_104_76" result="shape"/>
</filter>
</defs>
</svg>
