<svg width="400" height="250" viewBox="0 0 400 250" fill="none" xmlns="http://www.w3.org/2000/svg">
<path d="M88.892 70.4545L92.4077 81.5057H92.5426L96.0653 70.4545H99.4744L94.4602 85H90.4972L85.4759 70.4545H88.892Z" fill="#82FBB9"/>
<path d="M97.6037 91V85.5455H99.0455V86.5078H99.1094C99.223 86.1882 99.4124 85.9361 99.6776 85.7514C99.9427 85.5668 100.26 85.4744 100.629 85.4744C101.003 85.4744 101.322 85.5679 101.585 85.755C101.847 85.9396 102.022 86.1906 102.11 86.5078H102.167C102.278 86.1953 102.479 85.9455 102.771 85.7585C103.064 85.5691 103.411 85.4744 103.811 85.4744C104.32 85.4744 104.733 85.6366 105.05 85.9609C105.37 86.2829 105.53 86.7398 105.53 87.3317V91H104.021V87.63C104.021 87.3269 103.94 87.0997 103.779 86.9482C103.618 86.7966 103.417 86.7209 103.175 86.7209C102.901 86.7209 102.687 86.8085 102.533 86.9837C102.379 87.1565 102.302 87.3849 102.302 87.669V91H100.835V87.598C100.835 87.3305 100.758 87.1174 100.604 86.9588C100.453 86.8002 100.253 86.7209 100.004 86.7209C99.8362 86.7209 99.6847 86.7635 99.5497 86.8487C99.4171 86.9316 99.3118 87.0488 99.2337 87.2003C99.1555 87.3494 99.1165 87.5246 99.1165 87.7259V91H97.6037ZM108.28 91.103C107.932 91.103 107.622 91.0426 107.35 90.9219C107.078 90.7988 106.862 90.6177 106.703 90.3786C106.547 90.1371 106.469 89.8364 106.469 89.4766C106.469 89.1735 106.525 88.919 106.636 88.7131C106.747 88.5071 106.899 88.3414 107.091 88.2159C107.282 88.0904 107.5 87.9957 107.744 87.9318C107.99 87.8679 108.248 87.8229 108.518 87.7969C108.835 87.7637 109.091 87.733 109.285 87.7045C109.479 87.6738 109.62 87.6288 109.708 87.5696C109.795 87.5104 109.839 87.4228 109.839 87.3068V87.2855C109.839 87.0606 109.768 86.8866 109.626 86.7635C109.486 86.6404 109.288 86.5788 109.029 86.5788C108.757 86.5788 108.541 86.6392 108.38 86.7599C108.219 86.8783 108.112 87.0275 108.06 87.2074L106.661 87.0938C106.732 86.7623 106.872 86.4759 107.08 86.2344C107.288 85.9905 107.557 85.8035 107.886 85.6733C108.217 85.5407 108.601 85.4744 109.037 85.4744C109.34 85.4744 109.63 85.5099 109.907 85.581C110.186 85.652 110.433 85.7621 110.649 85.9112C110.867 86.0604 111.038 86.2521 111.164 86.4865C111.289 86.7185 111.352 86.9967 111.352 87.321V91H109.917V90.2436H109.875C109.787 90.4141 109.67 90.5644 109.523 90.6946C109.376 90.8224 109.2 90.9231 108.994 90.9964C108.788 91.0675 108.55 91.103 108.28 91.103ZM108.713 90.0589C108.936 90.0589 109.132 90.0152 109.303 89.9276C109.473 89.8376 109.607 89.7169 109.704 89.5653C109.801 89.4138 109.85 89.2422 109.85 89.0504V88.4716C109.802 88.5024 109.737 88.5308 109.654 88.5568C109.574 88.5805 109.483 88.603 109.381 88.6243C109.279 88.6432 109.177 88.661 109.076 88.6776C108.974 88.6918 108.882 88.7048 108.799 88.7166C108.621 88.7427 108.466 88.7841 108.333 88.8409C108.201 88.8977 108.098 88.9747 108.025 89.0717C107.951 89.1664 107.914 89.2848 107.914 89.4268C107.914 89.6328 107.989 89.7902 108.138 89.8991C108.29 90.0057 108.481 90.0589 108.713 90.0589ZM113.79 85.5455L114.791 87.4524L115.817 85.5455H117.369L115.789 88.2727L117.412 91H115.867L114.791 89.1143L113.733 91H112.17L113.79 88.2727L112.227 85.5455H113.79Z" fill="#82FBB9"/>
<rect x="123" y="214" width="177" height="3" transform="rotate(-90 123 214)" fill="#20AD74"/>
<rect x="123" y="122" width="174" height="3" fill="#20AD74"/>
<path d="M88.892 157.455L92.4077 168.506H92.5426L96.0653 157.455H99.4744L94.4602 172H90.4972L85.4759 157.455H88.892Z" fill="#82FBB9"/>
<path d="M97.6037 178V172.545H99.0455V173.508H99.1094C99.223 173.188 99.4124 172.936 99.6776 172.751C99.9427 172.567 100.26 172.474 100.629 172.474C101.003 172.474 101.322 172.568 101.585 172.755C101.847 172.94 102.022 173.191 102.11 173.508H102.167C102.278 173.195 102.479 172.946 102.771 172.759C103.064 172.569 103.411 172.474 103.811 172.474C104.32 172.474 104.733 172.637 105.05 172.961C105.37 173.283 105.53 173.74 105.53 174.332V178H104.021V174.63C104.021 174.327 103.94 174.1 103.779 173.948C103.618 173.797 103.417 173.721 103.175 173.721C102.901 173.721 102.687 173.808 102.533 173.984C102.379 174.156 102.302 174.385 102.302 174.669V178H100.835V174.598C100.835 174.33 100.758 174.117 100.604 173.959C100.453 173.8 100.253 173.721 100.004 173.721C99.8362 173.721 99.6847 173.763 99.5497 173.849C99.4171 173.932 99.3118 174.049 99.2337 174.2C99.1555 174.349 99.1165 174.525 99.1165 174.726V178H97.6037ZM108.28 178.103C107.932 178.103 107.622 178.043 107.35 177.922C107.078 177.799 106.862 177.618 106.703 177.379C106.547 177.137 106.469 176.836 106.469 176.477C106.469 176.174 106.525 175.919 106.636 175.713C106.747 175.507 106.899 175.341 107.091 175.216C107.282 175.09 107.5 174.996 107.744 174.932C107.99 174.868 108.248 174.823 108.518 174.797C108.835 174.764 109.091 174.733 109.285 174.705C109.479 174.674 109.62 174.629 109.708 174.57C109.795 174.51 109.839 174.423 109.839 174.307V174.286C109.839 174.061 109.768 173.887 109.626 173.763C109.486 173.64 109.288 173.579 109.029 173.579C108.757 173.579 108.541 173.639 108.38 173.76C108.219 173.878 108.112 174.027 108.06 174.207L106.661 174.094C106.732 173.762 106.872 173.476 107.08 173.234C107.288 172.991 107.557 172.804 107.886 172.673C108.217 172.541 108.601 172.474 109.037 172.474C109.34 172.474 109.63 172.51 109.907 172.581C110.186 172.652 110.433 172.762 110.649 172.911C110.867 173.06 111.038 173.252 111.164 173.487C111.289 173.719 111.352 173.997 111.352 174.321V178H109.917V177.244H109.875C109.787 177.414 109.67 177.564 109.523 177.695C109.376 177.822 109.2 177.923 108.994 177.996C108.788 178.067 108.55 178.103 108.28 178.103ZM108.713 177.059C108.936 177.059 109.132 177.015 109.303 176.928C109.473 176.838 109.607 176.717 109.704 176.565C109.801 176.414 109.85 176.242 109.85 176.05V175.472C109.802 175.502 109.737 175.531 109.654 175.557C109.574 175.58 109.483 175.603 109.381 175.624C109.279 175.643 109.177 175.661 109.076 175.678C108.974 175.692 108.882 175.705 108.799 175.717C108.621 175.743 108.466 175.784 108.333 175.841C108.201 175.898 108.098 175.975 108.025 176.072C107.951 176.166 107.914 176.285 107.914 176.427C107.914 176.633 107.989 176.79 108.138 176.899C108.29 177.006 108.481 177.059 108.713 177.059ZM113.79 172.545L114.791 174.452L115.817 172.545H117.369L115.789 175.273L117.412 178H115.867L114.791 176.114L113.733 178H112.17L113.79 175.273L112.227 172.545H113.79Z" fill="#82FBB9"/>
<line x1="77" y1="72" x2="77" y2="84" stroke="#008D55" stroke-width="2"/>
<line x1="71" y1="78" x2="83" y2="78" stroke="#008D55" stroke-width="2"/>
<line x1="71" y1="164" x2="83" y2="164" stroke="#008D55" stroke-width="2"/>
<path d="M127 123.543C139.788 74.6902 146.998 71.3226 160 123.543" stroke="#85D26E" stroke-width="3" stroke-dasharray="5 5"/>
<path d="M160 123.5C172.167 171.137 178.743 171.594 190 123.5" stroke="#85D26E" stroke-width="3"/>
<path d="M190 123.543C202.788 74.6902 209.998 71.3226 223 123.543" stroke="#85D26E" stroke-width="3" stroke-dasharray="5 5"/>
<path d="M223 123.5C235.167 171.137 241.743 171.594 253 123.5" stroke="#85D26E" stroke-width="3"/>
<rect x="123" y="122" width="9" height="3" fill="#20AD74"/>
<rect x="248" y="122" width="9" height="3" fill="#20AD74"/>
<line x1="126" y1="84.5" x2="282" y2="84.5" stroke="#85D26E" stroke-dasharray="2 2"/>
<line x1="125.997" y1="161.5" x2="281.997" y2="160.513" stroke="#85D26E" stroke-dasharray="2 2"/>
</svg>
