<svg width="400" height="250" viewBox="0 0 400 250" fill="none" xmlns="http://www.w3.org/2000/svg">
<g filter="url(#filter0_d_104_76)">
<path d="M205.824 63.5V47.5M205.824 31.5V47.5M205.824 47.5L178.294 60.9643V47.5M205.824 47.5L178.294 34.0357V47.5M205.824 47.5H213.471H215M178.294 47.5L163 47.5" stroke="#20AD74" stroke-width="3" shape-rendering="crispEdges"/>
</g>
<rect x="86" y="214" width="233" height="3" fill="#20AD74"/>
<rect x="309" y="112" width="58" height="3" transform="rotate(-90 309 112)" fill="#20AD74"/>
<rect x="309" y="208" width="58" height="3" transform="rotate(-90 309 208)" fill="#20AD74"/>
<path d="M310.5 51L315.263 58.5H305.737L310.5 51Z" fill="#20AD74"/>
<path d="M310.5 211L305.737 203.5H315.263L310.5 211Z" fill="#20AD74"/>
<rect x="93" y="112" width="58" height="3" transform="rotate(-90 93 112)" fill="#20AD74"/>
<rect x="93" y="208" width="58" height="3" transform="rotate(-90 93 208)" fill="#20AD74"/>
<path d="M94.5 51L99.2631 58.5H89.7369L94.5 51Z" fill="#20AD74"/>
<path d="M94.5 211L89.7369 203.5H99.2631L94.5 211Z" fill="#20AD74"/>
<path d="M300.892 122.455L304.408 133.506H304.543L308.065 122.455H311.474L306.46 137H302.497L297.476 122.455H300.892Z" fill="#82FBB9"/>
<path d="M312.068 143.107C311.517 143.107 311.04 142.989 310.637 142.755C310.237 142.518 309.928 142.189 309.71 141.768C309.492 141.344 309.384 140.853 309.384 140.294C309.384 139.731 309.492 139.238 309.71 138.817C309.928 138.393 310.237 138.064 310.637 137.83C311.04 137.593 311.517 137.474 312.068 137.474C312.62 137.474 313.096 137.593 313.496 137.83C313.898 138.064 314.208 138.393 314.426 138.817C314.644 139.238 314.753 139.731 314.753 140.294C314.753 140.853 314.644 141.344 314.426 141.768C314.208 142.189 313.898 142.518 313.496 142.755C313.096 142.989 312.62 143.107 312.068 143.107ZM312.075 141.935C312.326 141.935 312.536 141.864 312.704 141.722C312.872 141.577 312.999 141.381 313.084 141.132C313.171 140.884 313.215 140.601 313.215 140.283C313.215 139.966 313.171 139.683 313.084 139.435C312.999 139.186 312.872 138.99 312.704 138.845C312.536 138.701 312.326 138.629 312.075 138.629C311.822 138.629 311.609 138.701 311.436 138.845C311.266 138.99 311.137 139.186 311.049 139.435C310.964 139.683 310.921 139.966 310.921 140.283C310.921 140.601 310.964 140.884 311.049 141.132C311.137 141.381 311.266 141.577 311.436 141.722C311.609 141.864 311.822 141.935 312.075 141.935ZM319.234 140.678V137.545H320.747V143H319.295V142.009H319.238C319.115 142.329 318.91 142.586 318.624 142.78C318.339 142.974 317.993 143.071 317.583 143.071C317.219 143.071 316.898 142.988 316.621 142.822C316.344 142.657 316.127 142.421 315.971 142.116C315.817 141.81 315.739 141.445 315.737 141.018V137.545H317.249V140.749C317.252 141.071 317.338 141.325 317.509 141.512C317.679 141.699 317.907 141.793 318.194 141.793C318.376 141.793 318.547 141.751 318.705 141.668C318.864 141.583 318.992 141.458 319.089 141.292C319.188 141.126 319.237 140.921 319.234 140.678ZM324.858 137.545V138.682H321.574V137.545H324.858ZM322.319 136.239H323.832V141.324C323.832 141.464 323.854 141.572 323.896 141.651C323.939 141.726 323.998 141.78 324.074 141.81C324.152 141.841 324.242 141.857 324.344 141.857C324.415 141.857 324.486 141.851 324.557 141.839C324.628 141.825 324.682 141.814 324.72 141.807L324.958 142.933C324.882 142.956 324.776 142.983 324.638 143.014C324.501 143.047 324.334 143.067 324.138 143.075C323.773 143.089 323.453 143.04 323.179 142.929C322.907 142.818 322.695 142.645 322.543 142.411C322.392 142.176 322.317 141.88 322.319 141.523V136.239Z" fill="#82FBB9"/>
<line x1="77" y1="24" x2="77" y2="42" stroke="#008D55" stroke-width="2"/>
<line x1="68" y1="33" x2="86" y2="33" stroke="#008D55" stroke-width="2"/>
<line x1="67" y1="228" x2="85" y2="228" stroke="#008D55" stroke-width="2"/>
<g filter="url(#filter1_d_104_76)">
<path d="M263.5 186.5V168.5L247.5 158.5L275.5 143.5L247.5 130.5L275.5 118L247.5 104L263.5 94.5V80" stroke="#20AD74" stroke-width="3"/>
</g>
<rect x="86" y="46" width="81" height="3" fill="#20AD74"/>
<rect x="212" y="46" width="107" height="3" fill="#20AD74"/>
<path d="M85.892 119.455L89.4077 130.506H89.5426L93.0653 119.455H96.4744L91.4602 134H87.4972L82.4759 119.455H85.892Z" fill="#82FBB9"/>
<path d="M94.6037 140V134.545H96.1165V140H94.6037ZM95.3636 133.842C95.1387 133.842 94.9458 133.768 94.7848 133.619C94.6262 133.467 94.5469 133.286 94.5469 133.075C94.5469 132.867 94.6262 132.688 94.7848 132.539C94.9458 132.388 95.1387 132.312 95.3636 132.312C95.5885 132.312 95.7803 132.388 95.9389 132.539C96.0999 132.688 96.1804 132.867 96.1804 133.075C96.1804 133.286 96.0999 133.467 95.9389 133.619C95.7803 133.768 95.5885 133.842 95.3636 133.842ZM98.8411 136.847V140H97.3283V134.545H98.7701V135.508H98.834C98.9547 135.191 99.1571 134.94 99.4412 134.755C99.7253 134.568 100.07 134.474 100.475 134.474C100.853 134.474 101.184 134.557 101.465 134.723C101.747 134.889 101.966 135.125 102.122 135.433C102.279 135.739 102.357 136.103 102.357 136.527V140H100.844V136.797C100.846 136.463 100.761 136.203 100.588 136.016C100.415 135.826 100.177 135.732 99.8745 135.732C99.6709 135.732 99.4909 135.775 99.3347 135.863C99.1808 135.951 99.0601 136.078 98.9725 136.246C98.8873 136.412 98.8435 136.612 98.8411 136.847Z" fill="#82FBB9"/>
<path d="M228.264 122V107.455H234.003C235.101 107.455 236.039 107.651 236.815 108.044C237.597 108.432 238.191 108.984 238.598 109.699C239.01 110.409 239.216 111.245 239.216 112.206C239.216 113.172 239.008 114.003 238.591 114.699C238.174 115.39 237.571 115.92 236.78 116.29C235.994 116.659 235.042 116.844 233.925 116.844H230.082V114.372H233.428C234.015 114.372 234.502 114.292 234.891 114.131C235.279 113.97 235.568 113.728 235.757 113.406C235.951 113.084 236.048 112.684 236.048 112.206C236.048 111.723 235.951 111.316 235.757 110.984C235.568 110.653 235.277 110.402 234.884 110.232C234.495 110.056 234.005 109.969 233.413 109.969H231.339V122H228.264ZM236.119 115.381L239.734 122H236.339L232.803 115.381H236.119Z" fill="#82FBB9"/>
<rect x="262" y="85" width="39" height="3" transform="rotate(-90 262 85)" fill="#20AD74"/>
<rect x="262" y="217" width="40" height="3" transform="rotate(-90 262 217)" fill="#20AD74"/>
<path d="M162.42 31H157.264V16.4545H162.463C163.926 16.4545 165.186 16.7457 166.241 17.3281C167.297 17.9058 168.109 18.7367 168.678 19.821C169.25 20.9053 169.537 22.2027 169.537 23.7131C169.537 25.2282 169.25 26.5303 168.678 27.6193C168.109 28.7083 167.293 29.544 166.227 30.1264C165.167 30.7088 163.898 31 162.42 31ZM160.339 28.3651H162.293C163.202 28.3651 163.966 28.2041 164.587 27.8821C165.212 27.5554 165.68 27.0511 165.993 26.3693C166.31 25.6828 166.469 24.7973 166.469 23.7131C166.469 22.6383 166.31 21.7599 165.993 21.0781C165.68 20.3963 165.214 19.8944 164.594 19.5724C163.973 19.2505 163.209 19.0895 162.3 19.0895H160.339V28.3651Z" fill="#82FBB9"/>
<defs>
<filter id="filter0_d_104_76" x="157" y="25.5" width="64" height="44" filterUnits="userSpaceOnUse" color-interpolation-filters="sRGB">
<feFlood flood-opacity="0" result="BackgroundImageFix"/>
<feColorMatrix in="SourceAlpha" type="matrix" values="0 0 0 0 0 0 0 0 0 0 0 0 0 0 0 0 0 0 127 0" result="hardAlpha"/>
<feOffset/>
<feGaussianBlur stdDeviation="3"/>
<feComposite in2="hardAlpha" operator="out"/>
<feColorMatrix type="matrix" values="0 0 0 0 0 0 0 0 0 0.985577 0 0 0 0 0.328526 0 0 0 1 0"/>
<feBlend mode="normal" in2="BackgroundImageFix" result="effect1_dropShadow_104_76"/>
<feBlend mode="normal" in="SourceGraphic" in2="effect1_dropShadow_104_76" result="shape"/>
</filter>
<filter id="filter1_d_104_76" x="237.88" y="74" width="47.1273" height="118.5" filterUnits="userSpaceOnUse" color-interpolation-filters="sRGB">
<feFlood flood-opacity="0" result="BackgroundImageFix"/>
<feColorMatrix in="SourceAlpha" type="matrix" values="0 0 0 0 0 0 0 0 0 0 0 0 0 0 0 0 0 0 127 0" result="hardAlpha"/>
<feOffset/>
<feGaussianBlur stdDeviation="3"/>
<feComposite in2="hardAlpha" operator="out"/>
<feColorMatrix type="matrix" values="0 0 0 0 0 0 0 0 0 0.984314 0 0 0 0 0.329412 0 0 0 1 0"/>
<feBlend mode="normal" in2="BackgroundImageFix" result="effect1_dropShadow_104_76"/>
<feBlend mode="normal" in="SourceGraphic" in2="effect1_dropShadow_104_76" result="shape"/>
</filter>
</defs>
</svg>
