<svg width="400" height="250" viewBox="0 0 400 250" fill="none" xmlns="http://www.w3.org/2000/svg">
<path d="M96.892 70.4545L100.408 81.5057H100.543L104.065 70.4545H107.474L102.46 85H98.4972L93.4759 70.4545H96.892Z" fill="#82FBB9"/>
<path d="M105.604 91V85.5455H107.045V86.5078H107.109C107.223 86.1882 107.412 85.9361 107.678 85.7514C107.943 85.5668 108.26 85.4744 108.629 85.4744C109.003 85.4744 109.322 85.5679 109.585 85.755C109.847 85.9396 110.022 86.1906 110.11 86.5078H110.167C110.278 86.1953 110.479 85.9455 110.771 85.7585C111.064 85.5691 111.411 85.4744 111.811 85.4744C112.32 85.4744 112.733 85.6366 113.05 85.9609C113.37 86.2829 113.53 86.7398 113.53 87.3317V91H112.021V87.63C112.021 87.3269 111.94 87.0997 111.779 86.9482C111.618 86.7966 111.417 86.7209 111.175 86.7209C110.901 86.7209 110.687 86.8085 110.533 86.9837C110.379 87.1565 110.302 87.3849 110.302 87.669V91H108.835V87.598C108.835 87.3305 108.758 87.1174 108.604 86.9588C108.453 86.8002 108.253 86.7209 108.004 86.7209C107.836 86.7209 107.685 86.7635 107.55 86.8487C107.417 86.9316 107.312 87.0488 107.234 87.2003C107.156 87.3494 107.116 87.5246 107.116 87.7259V91H105.604ZM116.28 91.103C115.932 91.103 115.622 91.0426 115.35 90.9219C115.078 90.7988 114.862 90.6177 114.703 90.3786C114.547 90.1371 114.469 89.8364 114.469 89.4766C114.469 89.1735 114.525 88.919 114.636 88.7131C114.747 88.5071 114.899 88.3414 115.091 88.2159C115.282 88.0904 115.5 87.9957 115.744 87.9318C115.99 87.8679 116.248 87.8229 116.518 87.7969C116.835 87.7637 117.091 87.733 117.285 87.7045C117.479 87.6738 117.62 87.6288 117.708 87.5696C117.795 87.5104 117.839 87.4228 117.839 87.3068V87.2855C117.839 87.0606 117.768 86.8866 117.626 86.7635C117.486 86.6404 117.288 86.5788 117.029 86.5788C116.757 86.5788 116.541 86.6392 116.38 86.7599C116.219 86.8783 116.112 87.0275 116.06 87.2074L114.661 87.0938C114.732 86.7623 114.872 86.4759 115.08 86.2344C115.288 85.9905 115.557 85.8035 115.886 85.6733C116.217 85.5407 116.601 85.4744 117.037 85.4744C117.34 85.4744 117.63 85.5099 117.907 85.581C118.186 85.652 118.433 85.7621 118.649 85.9112C118.867 86.0604 119.038 86.2521 119.164 86.4865C119.289 86.7185 119.352 86.9967 119.352 87.321V91H117.917V90.2436H117.875C117.787 90.4141 117.67 90.5644 117.523 90.6946C117.376 90.8224 117.2 90.9231 116.994 90.9964C116.788 91.0675 116.55 91.103 116.28 91.103ZM116.713 90.0589C116.936 90.0589 117.132 90.0152 117.303 89.9276C117.473 89.8376 117.607 89.7169 117.704 89.5653C117.801 89.4138 117.85 89.2422 117.85 89.0504V88.4716C117.802 88.5024 117.737 88.5308 117.654 88.5568C117.574 88.5805 117.483 88.603 117.381 88.6243C117.279 88.6432 117.177 88.661 117.076 88.6776C116.974 88.6918 116.882 88.7048 116.799 88.7166C116.621 88.7427 116.466 88.7841 116.333 88.8409C116.201 88.8977 116.098 88.9747 116.025 89.0717C115.951 89.1664 115.914 89.2848 115.914 89.4268C115.914 89.6328 115.989 89.7902 116.138 89.8991C116.29 90.0057 116.481 90.0589 116.713 90.0589ZM121.79 85.5455L122.791 87.4524L123.817 85.5455H125.369L123.789 88.2727L125.412 91H123.867L122.791 89.1143L121.733 91H120.17L121.79 88.2727L120.227 85.5455H121.79Z" fill="#82FBB9"/>
<rect x="131" y="214" width="177" height="3" transform="rotate(-90 131 214)" fill="#20AD74"/>
<rect x="131" y="122" width="174" height="3" fill="#20AD74"/>
<path d="M96.892 157.455L100.408 168.506H100.543L104.065 157.455H107.474L102.46 172H98.4972L93.4759 157.455H96.892Z" fill="#82FBB9"/>
<path d="M105.604 178V172.545H107.045V173.508H107.109C107.223 173.188 107.412 172.936 107.678 172.751C107.943 172.567 108.26 172.474 108.629 172.474C109.003 172.474 109.322 172.568 109.585 172.755C109.847 172.94 110.022 173.191 110.11 173.508H110.167C110.278 173.195 110.479 172.946 110.771 172.759C111.064 172.569 111.411 172.474 111.811 172.474C112.32 172.474 112.733 172.637 113.05 172.961C113.37 173.283 113.53 173.74 113.53 174.332V178H112.021V174.63C112.021 174.327 111.94 174.1 111.779 173.948C111.618 173.797 111.417 173.721 111.175 173.721C110.901 173.721 110.687 173.808 110.533 173.984C110.379 174.156 110.302 174.385 110.302 174.669V178H108.835V174.598C108.835 174.33 108.758 174.117 108.604 173.959C108.453 173.8 108.253 173.721 108.004 173.721C107.836 173.721 107.685 173.763 107.55 173.849C107.417 173.932 107.312 174.049 107.234 174.2C107.156 174.349 107.116 174.525 107.116 174.726V178H105.604ZM116.28 178.103C115.932 178.103 115.622 178.043 115.35 177.922C115.078 177.799 114.862 177.618 114.703 177.379C114.547 177.137 114.469 176.836 114.469 176.477C114.469 176.174 114.525 175.919 114.636 175.713C114.747 175.507 114.899 175.341 115.091 175.216C115.282 175.09 115.5 174.996 115.744 174.932C115.99 174.868 116.248 174.823 116.518 174.797C116.835 174.764 117.091 174.733 117.285 174.705C117.479 174.674 117.62 174.629 117.708 174.57C117.795 174.51 117.839 174.423 117.839 174.307V174.286C117.839 174.061 117.768 173.887 117.626 173.763C117.486 173.64 117.288 173.579 117.029 173.579C116.757 173.579 116.541 173.639 116.38 173.76C116.219 173.878 116.112 174.027 116.06 174.207L114.661 174.094C114.732 173.762 114.872 173.476 115.08 173.234C115.288 172.991 115.557 172.804 115.886 172.673C116.217 172.541 116.601 172.474 117.037 172.474C117.34 172.474 117.63 172.51 117.907 172.581C118.186 172.652 118.433 172.762 118.649 172.911C118.867 173.06 119.038 173.252 119.164 173.487C119.289 173.719 119.352 173.997 119.352 174.321V178H117.917V177.244H117.875C117.787 177.414 117.67 177.564 117.523 177.695C117.376 177.822 117.2 177.923 116.994 177.996C116.788 178.067 116.55 178.103 116.28 178.103ZM116.713 177.059C116.936 177.059 117.132 177.015 117.303 176.928C117.473 176.838 117.607 176.717 117.704 176.565C117.801 176.414 117.85 176.242 117.85 176.05V175.472C117.802 175.502 117.737 175.531 117.654 175.557C117.574 175.58 117.483 175.603 117.381 175.624C117.279 175.643 117.177 175.661 117.076 175.678C116.974 175.692 116.882 175.705 116.799 175.717C116.621 175.743 116.466 175.784 116.333 175.841C116.201 175.898 116.098 175.975 116.025 176.072C115.951 176.166 115.914 176.285 115.914 176.427C115.914 176.633 115.989 176.79 116.138 176.899C116.29 177.006 116.481 177.059 116.713 177.059ZM121.79 172.545L122.791 174.452L123.817 172.545H125.369L123.789 175.273L125.412 178H123.867L122.791 176.114L121.733 178H120.17L121.79 175.273L120.227 172.545H121.79Z" fill="#82FBB9"/>
<line x1="85" y1="72" x2="85" y2="84" stroke="#008D55" stroke-width="2"/>
<line x1="79" y1="78" x2="91" y2="78" stroke="#008D55" stroke-width="2"/>
<line x1="79" y1="164" x2="91" y2="164" stroke="#008D55" stroke-width="2"/>
<path d="M135 123.543C147.788 74.6902 154.998 71.3226 168 123.543" stroke="#85D26E" stroke-width="3"/>
<path d="M168 123.5C180.167 171.137 186.743 171.594 198 123.5" stroke="#85D26E" stroke-width="3" stroke-dasharray="5 5"/>
<path d="M198 123.543C210.788 74.6902 217.998 71.3226 231 123.543" stroke="#85D26E" stroke-width="3"/>
<path d="M231 123.5C243.167 171.137 249.743 171.594 261 123.5" stroke="#85D26E" stroke-width="3" stroke-dasharray="5 5"/>
<rect x="131" y="122" width="9" height="3" fill="#20AD74"/>
<rect x="256" y="122" width="9" height="3" fill="#20AD74"/>
<line x1="134" y1="84.5" x2="290" y2="84.5" stroke="#85D26E" stroke-dasharray="2 2"/>
<line x1="133.997" y1="161.5" x2="289.997" y2="160.513" stroke="#85D26E" stroke-dasharray="2 2"/>
</svg>
