<svg width="400" height="250" viewBox="0 0 400 250" fill="none" xmlns="http://www.w3.org/2000/svg">
<g filter="url(#filter0_d_104_76)">
<path d="M297.5 193.5V175.5L281.5 165.5L309.5 150.5L281.5 137.5L309.5 125L281.5 111L297.5 101.5V87" stroke="#20AD74" stroke-width="3"/>
</g>
<g filter="url(#filter1_d_104_76)">
<path d="M254.5 119.176H238.5M222.5 119.176H238.5M238.5 119.176L251.964 146.706H238.5M238.5 119.176L225.036 146.706H238.5M238.5 119.176V111.529V110M238.5 146.706V162" stroke="#20AD74" stroke-width="3" shape-rendering="crispEdges"/>
</g>
<rect x="296" y="92" width="40" height="3" transform="rotate(-90 296 92)" fill="#20AD74"/>
<rect x="296" y="223" width="40" height="3" transform="rotate(-90 296 223)" fill="#20AD74"/>
<rect x="61" y="220" width="292" height="3" fill="#20AD74"/>
<rect x="340" y="118" width="58" height="3" transform="rotate(-90 340 118)" fill="#20AD74"/>
<rect x="340" y="214" width="58" height="3" transform="rotate(-90 340 214)" fill="#20AD74"/>
<path d="M341.5 57L346.263 64.5H336.737L341.5 57Z" fill="#20AD74"/>
<path d="M341.5 217L336.737 209.5H346.263L341.5 217Z" fill="#20AD74"/>
<rect x="68" y="118" width="58" height="3" transform="rotate(-90 68 118)" fill="#20AD74"/>
<rect x="68" y="214" width="58" height="3" transform="rotate(-90 68 214)" fill="#20AD74"/>
<path d="M69.5 57L74.2631 64.5H64.7369L69.5 57Z" fill="#20AD74"/>
<path d="M69.5 217L64.7369 209.5H74.2631L69.5 217Z" fill="#20AD74"/>
<path d="M331.892 128.455L335.408 139.506H335.543L339.065 128.455H342.474L337.46 143H333.497L328.476 128.455H331.892Z" fill="#82FBB9"/>
<path d="M343.068 149.107C342.517 149.107 342.04 148.989 341.637 148.755C341.237 148.518 340.928 148.189 340.71 147.768C340.492 147.344 340.384 146.853 340.384 146.294C340.384 145.731 340.492 145.238 340.71 144.817C340.928 144.393 341.237 144.064 341.637 143.83C342.04 143.593 342.517 143.474 343.068 143.474C343.62 143.474 344.096 143.593 344.496 143.83C344.898 144.064 345.208 144.393 345.426 144.817C345.644 145.238 345.753 145.731 345.753 146.294C345.753 146.853 345.644 147.344 345.426 147.768C345.208 148.189 344.898 148.518 344.496 148.755C344.096 148.989 343.62 149.107 343.068 149.107ZM343.075 147.935C343.326 147.935 343.536 147.864 343.704 147.722C343.872 147.577 343.999 147.381 344.084 147.132C344.171 146.884 344.215 146.601 344.215 146.283C344.215 145.966 344.171 145.683 344.084 145.435C343.999 145.186 343.872 144.99 343.704 144.845C343.536 144.701 343.326 144.629 343.075 144.629C342.822 144.629 342.609 144.701 342.436 144.845C342.266 144.99 342.137 145.186 342.049 145.435C341.964 145.683 341.921 145.966 341.921 146.283C341.921 146.601 341.964 146.884 342.049 147.132C342.137 147.381 342.266 147.577 342.436 147.722C342.609 147.864 342.822 147.935 343.075 147.935ZM350.234 146.678V143.545H351.747V149H350.295V148.009H350.238C350.115 148.329 349.91 148.586 349.624 148.78C349.339 148.974 348.993 149.071 348.583 149.071C348.219 149.071 347.898 148.988 347.621 148.822C347.344 148.657 347.127 148.421 346.971 148.116C346.817 147.81 346.739 147.445 346.737 147.018V143.545H348.249V146.749C348.252 147.071 348.338 147.325 348.509 147.512C348.679 147.699 348.907 147.793 349.194 147.793C349.376 147.793 349.547 147.751 349.705 147.668C349.864 147.583 349.992 147.458 350.089 147.292C350.188 147.126 350.237 146.921 350.234 146.678ZM355.858 143.545V144.682H352.574V143.545H355.858ZM353.319 142.239H354.832V147.324C354.832 147.464 354.854 147.572 354.896 147.651C354.939 147.726 354.998 147.78 355.074 147.81C355.152 147.841 355.242 147.857 355.344 147.857C355.415 147.857 355.486 147.851 355.557 147.839C355.628 147.825 355.682 147.814 355.72 147.807L355.958 148.933C355.882 148.956 355.776 148.983 355.638 149.014C355.501 149.047 355.334 149.067 355.138 149.075C354.773 149.089 354.453 149.04 354.179 148.929C353.907 148.818 353.695 148.645 353.543 148.411C353.392 148.176 353.317 147.88 353.319 147.523V142.239Z" fill="#82FBB9"/>
<line x1="52" y1="30" x2="52" y2="48" stroke="#008D55" stroke-width="2"/>
<line x1="43" y1="39" x2="61" y2="39" stroke="#008D55" stroke-width="2"/>
<line x1="42" y1="234" x2="60" y2="234" stroke="#008D55" stroke-width="2"/>
<g filter="url(#filter2_d_104_76)">
<path d="M116 53.5H134L144 37.5L159 65.5L172 37.5L184.5 65.5L198.5 37.5L208 53.5H222.5" stroke="#20AD74" stroke-width="3"/>
</g>
<rect x="61" y="52" width="57" height="3" fill="#20AD74"/>
<rect x="218" y="52" width="135" height="3" fill="#20AD74"/>
<path d="M60.892 125.455L64.4077 136.506H64.5426L68.0653 125.455H71.4744L66.4602 140H62.4972L57.4759 125.455H60.892Z" fill="#82FBB9"/>
<path d="M69.6037 146V140.545H71.1165V146H69.6037ZM70.3636 139.842C70.1387 139.842 69.9458 139.768 69.7848 139.619C69.6262 139.467 69.5469 139.286 69.5469 139.075C69.5469 138.867 69.6262 138.688 69.7848 138.539C69.9458 138.388 70.1387 138.312 70.3636 138.312C70.5885 138.312 70.7803 138.388 70.9389 138.539C71.0999 138.688 71.1804 138.867 71.1804 139.075C71.1804 139.286 71.0999 139.467 70.9389 139.619C70.7803 139.768 70.5885 139.842 70.3636 139.842ZM73.8411 142.847V146H72.3283V140.545H73.7701V141.508H73.834C73.9547 141.191 74.1571 140.94 74.4412 140.755C74.7253 140.568 75.0698 140.474 75.4746 140.474C75.8534 140.474 76.1837 140.557 76.4654 140.723C76.7471 140.889 76.9661 141.125 77.1223 141.433C77.2786 141.739 77.3567 142.103 77.3567 142.527V146H75.8439V142.797C75.8463 142.463 75.7611 142.203 75.5882 142.016C75.4154 141.826 75.1775 141.732 74.8745 141.732C74.6709 141.732 74.4909 141.775 74.3347 141.863C74.1808 141.951 74.0601 142.078 73.9725 142.246C73.8873 142.412 73.8435 142.612 73.8411 142.847Z" fill="#82FBB9"/>
<path d="M166.264 23V8.45455H172.003C173.101 8.45455 174.039 8.65104 174.815 9.04403C175.597 9.43229 176.191 9.9839 176.598 10.6989C177.01 11.4091 177.216 12.2448 177.216 13.206C177.216 14.1719 177.008 15.0028 176.591 15.6989C176.174 16.3902 175.571 16.9205 174.78 17.2898C173.994 17.6591 173.042 17.8438 171.925 17.8438H168.082V15.3722H171.428C172.015 15.3722 172.502 15.2917 172.891 15.1307C173.279 14.9697 173.568 14.7282 173.757 14.4062C173.951 14.0843 174.048 13.6842 174.048 13.206C174.048 12.723 173.951 12.3158 173.757 11.9844C173.568 11.6529 173.277 11.402 172.884 11.2315C172.495 11.0563 172.005 10.9688 171.413 10.9688H169.339V23H166.264ZM174.119 16.3807L177.734 23H174.339L170.803 16.3807H174.119Z" fill="#82FBB9"/>
<path d="M182.754 20.7273V28H181.216V22.1868H181.173L179.508 23.2308V21.8672L181.308 20.7273H182.754Z" fill="#82FBB9"/>
<path d="M306.264 108V93.4545H312.003C313.101 93.4545 314.039 93.651 314.815 94.044C315.597 94.4323 316.191 94.9839 316.598 95.6989C317.01 96.4091 317.216 97.2448 317.216 98.206C317.216 99.1719 317.008 100.003 316.591 100.699C316.174 101.39 315.571 101.92 314.78 102.29C313.994 102.659 313.042 102.844 311.925 102.844H308.082V100.372H311.428C312.015 100.372 312.502 100.292 312.891 100.131C313.279 99.9697 313.568 99.7282 313.757 99.4062C313.951 99.0843 314.048 98.6842 314.048 98.206C314.048 97.723 313.951 97.3158 313.757 96.9844C313.568 96.6529 313.277 96.402 312.884 96.2315C312.495 96.0563 312.005 95.9688 311.413 95.9688H309.339V108H306.264ZM314.119 101.381L317.734 108H314.339L310.803 101.381H314.119Z" fill="#82FBB9"/>
<path d="M319.589 113V111.892L322.178 109.495C322.398 109.282 322.583 109.09 322.732 108.92C322.884 108.749 322.999 108.582 323.077 108.419C323.155 108.253 323.194 108.075 323.194 107.883C323.194 107.67 323.145 107.486 323.048 107.332C322.951 107.176 322.819 107.057 322.651 106.974C322.482 106.888 322.292 106.846 322.079 106.846C321.856 106.846 321.662 106.891 321.496 106.981C321.331 107.071 321.203 107.2 321.113 107.368C321.023 107.536 320.978 107.736 320.978 107.968H319.518C319.518 107.492 319.626 107.079 319.842 106.729C320.057 106.378 320.359 106.107 320.747 105.915C321.135 105.724 321.583 105.628 322.089 105.628C322.61 105.628 323.064 105.72 323.45 105.905C323.838 106.087 324.14 106.34 324.355 106.665C324.571 106.989 324.678 107.361 324.678 107.78C324.678 108.054 324.624 108.326 324.515 108.593C324.408 108.861 324.218 109.158 323.943 109.484C323.669 109.809 323.281 110.198 322.782 110.653L321.72 111.693V111.743H324.774V113H319.589Z" fill="#82FBB9"/>
<rect x="237" y="118" width="66" height="3" transform="rotate(-90 237 118)" fill="#20AD74"/>
<rect x="237" y="223" width="66" height="3" transform="rotate(-90 237 223)" fill="#20AD74"/>
<path d="M213.42 118H208.264V103.455H213.463C214.926 103.455 216.186 103.746 217.241 104.328C218.297 104.906 219.109 105.737 219.678 106.821C220.25 107.905 220.537 109.203 220.537 110.713C220.537 112.228 220.25 113.53 219.678 114.619C219.109 115.708 218.293 116.544 217.227 117.126C216.167 117.709 214.898 118 213.42 118ZM211.339 115.365H213.293C214.202 115.365 214.966 115.204 215.587 114.882C216.212 114.555 216.68 114.051 216.993 113.369C217.31 112.683 217.469 111.797 217.469 110.713C217.469 109.638 217.31 108.76 216.993 108.078C216.68 107.396 216.214 106.894 215.594 106.572C214.973 106.25 214.209 106.089 213.3 106.089H211.339V115.365Z" fill="#82FBB9"/>
<defs>
<filter id="filter0_d_104_76" x="271.88" y="81" width="47.1273" height="118.5" filterUnits="userSpaceOnUse" color-interpolation-filters="sRGB">
<feFlood flood-opacity="0" result="BackgroundImageFix"/>
<feColorMatrix in="SourceAlpha" type="matrix" values="0 0 0 0 0 0 0 0 0 0 0 0 0 0 0 0 0 0 127 0" result="hardAlpha"/>
<feOffset/>
<feGaussianBlur stdDeviation="3"/>
<feComposite in2="hardAlpha" operator="out"/>
<feColorMatrix type="matrix" values="0 0 0 0 0 0 0 0 0 0.984314 0 0 0 0 0.329412 0 0 0 1 0"/>
<feBlend mode="normal" in2="BackgroundImageFix" result="effect1_dropShadow_104_76"/>
<feBlend mode="normal" in="SourceGraphic" in2="effect1_dropShadow_104_76" result="shape"/>
</filter>
<filter id="filter1_d_104_76" x="216.5" y="104" width="44" height="64" filterUnits="userSpaceOnUse" color-interpolation-filters="sRGB">
<feFlood flood-opacity="0" result="BackgroundImageFix"/>
<feColorMatrix in="SourceAlpha" type="matrix" values="0 0 0 0 0 0 0 0 0 0 0 0 0 0 0 0 0 0 127 0" result="hardAlpha"/>
<feOffset/>
<feGaussianBlur stdDeviation="3"/>
<feComposite in2="hardAlpha" operator="out"/>
<feColorMatrix type="matrix" values="0 0 0 0 0 0 0 0 0 0.985577 0 0 0 0 0.328526 0 0 0 1 0"/>
<feBlend mode="normal" in2="BackgroundImageFix" result="effect1_dropShadow_104_76"/>
<feBlend mode="normal" in="SourceGraphic" in2="effect1_dropShadow_104_76" result="shape"/>
</filter>
<filter id="filter2_d_104_76" x="110" y="27.8804" width="118.5" height="47.1273" filterUnits="userSpaceOnUse" color-interpolation-filters="sRGB">
<feFlood flood-opacity="0" result="BackgroundImageFix"/>
<feColorMatrix in="SourceAlpha" type="matrix" values="0 0 0 0 0 0 0 0 0 0 0 0 0 0 0 0 0 0 127 0" result="hardAlpha"/>
<feOffset/>
<feGaussianBlur stdDeviation="3"/>
<feComposite in2="hardAlpha" operator="out"/>
<feColorMatrix type="matrix" values="0 0 0 0 0 0 0 0 0 0.984314 0 0 0 0 0.329412 0 0 0 1 0"/>
<feBlend mode="normal" in2="BackgroundImageFix" result="effect1_dropShadow_104_76"/>
<feBlend mode="normal" in="SourceGraphic" in2="effect1_dropShadow_104_76" result="shape"/>
</filter>
</defs>
</svg>
